<svg xmlns="http://www.w3.org/2000/svg" height="24" viewBox="0 -960 960 960" width="24"><path fill="#303336" d="M479-247q19.74 0 33.37-13.63Q526-274.26 526-294q0-19.74-13.63-33.37Q498.74-341 479-341q-19.74 0-33.37 13.63Q432-313.74 432-294q0 19.74 13.63 33.37Q459.26-247 479-247Zm-35-149h70q0-31.5 7.75-50T563-497q26-25 40-48.25T617-600q0-54.552-39.25-83.776Q538.5-713 484.174-713q-55.296 0-89.735 28.75T346-615l63.211 24q4.789-18 22.043-38 17.253-20 52.746-20 32 0 48 17.5t16 38.5q0 20-11.75 37T507-524q-42.5 37.5-52.75 57.75T444-396Zm36 306q-80.907 0-152.065-30.763-71.159-30.763-123.797-83.5Q151.5-257 120.75-328.087 90-399.175 90-480q0-80.907 30.763-152.065 30.763-71.159 83.5-123.797Q257-808.5 328.087-839.25 399.175-870 480-870q80.907 0 152.065 30.763 71.159 30.763 123.797 83.5Q808.5-703 839.25-631.913 870-560.825 870-480q0 80.907-30.763 152.065-30.763 71.159-83.5 123.797Q703-151.5 631.913-120.75 560.825-90 480-90Zm0-75q131.5 0 223.25-91.75T795-480q0-131.5-91.75-223.25T480-795q-131.5 0-223.25 91.75T165-480q0 131.5 91.75 223.25T480-165Zm0-315Z"/></svg>