<?xml version="1.0" encoding="utf-8"?>
<!-- Generator: Adobe Illustrator 28.2.0, SVG Export Plug-In . SVG Version: 6.00 Build 0)  -->
<svg version="1.1" id="레이어_1" xmlns="http://www.w3.org/2000/svg" xmlns:xlink="http://www.w3.org/1999/xlink" x="0px"
	 y="0px" viewBox="0 0 100 10" style="enable-background:new 0 0 100 10;" xml:space="preserve">
<g>
	<path d="M30.85,5.2l0.07-0.4h3.62l-0.07,0.4H30.85z"/>
	<path d="M35.17,5.2l0.07-0.4h3.62l-0.07,0.4H35.17z"/>
	<path d="M39.5,5.2l0.07-0.4h3.62l-0.07,0.4H39.5z"/>
	<path d="M43.83,5.2l0.07-0.4h3.62l-0.07,0.4H43.83z"/>
	<path d="M48.16,5.2l0.07-0.4h3.62l-0.07,0.4H48.16z"/>
	<path d="M52.48,5.2l0.07-0.4h3.62L56.1,5.2H52.48z"/>
	<path d="M56.81,5.2l0.07-0.4h3.62l-0.07,0.4H56.81z"/>
	<path d="M61.14,5.2l0.07-0.4h3.62l-0.07,0.4H61.14z"/>
	<path d="M65.47,5.2l0.07-0.4h3.62l-0.07,0.4H65.47z"/>
</g>
</svg>
